M48
; DRILL file {KiCad 9.0.0} date 2026-01-23T12:28:45+0000
; FORMAT={-:-/ absolute / inch / decimal}
; #@! TF.CreationDate,2026-01-23T12:28:45+00:00
; #@! TF.GenerationSoftware,Kicad,Pcbnew,9.0.0
; #@! TF.FileFunction,Plated,1,2,PTH
FMAT,2
INCH
; #@! TA.AperFunction,Plated,PTH,ViaDrill
T1C0.0118
; #@! TA.AperFunction,Plated,PTH,ComponentDrill
T2C0.0295
; #@! TA.AperFunction,Plated,PTH,ComponentDrill
T3C0.0315
; #@! TA.AperFunction,Plated,PTH,ComponentDrill
T4C0.0319
; #@! TA.AperFunction,Plated,PTH,ComponentDrill
T5C0.0394
; #@! TA.AperFunction,Plated,PTH,ComponentDrill
T6C0.0433
; #@! TA.AperFunction,Plated,PTH,ComponentDrill
T7C0.0469
; #@! TA.AperFunction,Plated,PTH,ComponentDrill
T8C0.0472
; #@! TA.AperFunction,Plated,PTH,ComponentDrill
T9C0.0512
%
G90
G05
T1
X3.3858Y-4.685
T2
X3.4067Y-3.5445
X3.4067Y-3.6445
X3.4567Y-3.5945
X4.9409Y-3.4835
X4.9409Y-3.5835
X4.9909Y-3.5335
X6.4921Y-3.0795
X6.4921Y-3.1795
X6.5421Y-3.1295
T3
X2.2874Y-3.7913
X2.2874Y-3.9882
X2.8441Y-2.0906
X2.9685Y-4.3894
X2.9685Y-4.6894
X2.9724Y-3.7795
X2.9724Y-4.0795
X3.2441Y-2.0906
X3.4016Y-1.4961
X3.4016Y-1.8961
X3.5984Y-4.5519
X3.5984Y-4.6503
X3.7102Y-1.4969
X3.7881Y-2.0866
X3.8465Y-3.4528
X3.8465Y-3.6496
X3.8865Y-2.0866
X4.1102Y-1.4969
X4.3701Y-4.3937
X4.3701Y-4.5906
X4.6457Y-1.6512
X4.6457Y-2.0512
X4.6457Y-4.2929
X4.6457Y-4.6929
X4.9409Y-1.6465
X4.9409Y-2.0465
X4.9409Y-4.2882
X4.9409Y-4.6882
X5.1929Y-4.4291
X5.1929Y-4.5276
X5.8268Y-3.122
X5.9252Y-3.122
X6.4724Y-3.7669
X6.4724Y-4.1669
X6.563Y-2.2535
X6.563Y-2.6535
T4
X6.9156Y-2.437
X6.9156Y-2.6732
X7.3801Y-2.437
X7.3801Y-2.5551
X7.3801Y-2.6732
T5
X1.9591Y-4.0827
X1.9591Y-4.1827
X1.9591Y-4.2827
X2.0591Y-4.0827
X2.0591Y-4.1827
X2.0591Y-4.2827
X2.5024Y-4.1772
X2.5024Y-4.2772
X2.6024Y-4.1772
X2.6024Y-4.2772
X3.9748Y-4.8819
X4.0748Y-4.8819
X4.1339Y-3.0205
X4.1339Y-3.1205
X4.1339Y-3.2205
X4.2339Y-3.0205
X4.2339Y-3.1205
X4.2339Y-3.2205
X5.4724Y-3.022
X5.4724Y-3.122
X5.4724Y-3.222
X5.5724Y-3.022
X5.5724Y-3.122
X5.5724Y-3.222
T6
X2.2835Y-4.2803
X2.2835Y-4.6803
X3.4075Y-2.3071
X3.4075Y-3.3071
T7
X1.0083Y-2.2858
X1.0083Y-2.3858
X1.0083Y-2.6165
X1.0083Y-2.7165
X2.5102Y-4.5551
X2.6102Y-4.5551
X5.2685Y-1.824
X5.2685Y-1.924
X6.1575Y-3.5732
X6.1575Y-3.6732
X6.1575Y-3.7732
X7.7555Y-2.5626
X7.7555Y-2.6626
X7.7555Y-3.4276
X7.7555Y-3.5276
X7.7555Y-3.9394
X7.7555Y-4.0394
T8
X1.8091Y-2.2579
X1.8091Y-2.3858
X1.811Y-3.1831
X1.811Y-4.0472
X1.811Y-4.1811
X2.5531Y-1.6969
X2.7618Y-1.6969
T9
X3.4094Y-2.7087
X3.4094Y-2.9055
M30
