%TF.GenerationSoftware,KiCad,Pcbnew,9.0.0*%
%TF.CreationDate,2026-01-23T12:34:58+00:00*%
%TF.ProjectId,LadybirdRadioUpdated,4c616479-6269-4726-9452-6164696f5570,rev?*%
%TF.SameCoordinates,Original*%
%TF.FileFunction,Soldermask,Bot*%
%TF.FilePolarity,Negative*%
%FSLAX46Y46*%
G04 Gerber Fmt 4.6, Leading zero omitted, Abs format (unit mm)*
G04 Created by KiCad (PCBNEW 9.0.0) date 2026-01-23 12:34:58*
%MOMM*%
%LPD*%
G01*
G04 APERTURE LIST*
G04 Aperture macros list*
%AMRoundRect*
0 Rectangle with rounded corners*
0 $1 Rounding radius*
0 $2 $3 $4 $5 $6 $7 $8 $9 X,Y pos of 4 corners*
0 Add a 4 corners polygon primitive as box body*
4,1,4,$2,$3,$4,$5,$6,$7,$8,$9,$2,$3,0*
0 Add four circle primitives for the rounded corners*
1,1,$1+$1,$2,$3*
1,1,$1+$1,$4,$5*
1,1,$1+$1,$6,$7*
1,1,$1+$1,$8,$9*
0 Add four rect primitives between the rounded corners*
20,1,$1+$1,$2,$3,$4,$5,0*
20,1,$1+$1,$4,$5,$6,$7,0*
20,1,$1+$1,$6,$7,$8,$9,0*
20,1,$1+$1,$8,$9,$2,$3,0*%
G04 Aperture macros list end*
%ADD10R,1.600000X1.600000*%
%ADD11C,1.600000*%
%ADD12O,1.600000X1.600000*%
%ADD13R,1.700000X1.700000*%
%ADD14O,1.700000X1.700000*%
%ADD15RoundRect,0.250000X0.845000X-0.620000X0.845000X0.620000X-0.845000X0.620000X-0.845000X-0.620000X0*%
%ADD16O,2.190000X1.740000*%
%ADD17R,1.800000X1.100000*%
%ADD18RoundRect,0.275000X-0.625000X0.275000X-0.625000X-0.275000X0.625000X-0.275000X0.625000X0.275000X0*%
%ADD19C,3.200000*%
%ADD20RoundRect,0.250000X-0.845000X0.620000X-0.845000X-0.620000X0.845000X-0.620000X0.845000X0.620000X0*%
%ADD21C,2.300000*%
%ADD22C,2.400000*%
%ADD23O,2.400000X2.400000*%
%ADD24RoundRect,0.250000X-0.620000X-0.845000X0.620000X-0.845000X0.620000X0.845000X-0.620000X0.845000X0*%
%ADD25O,1.740000X2.190000*%
%ADD26R,2.200000X2.200000*%
%ADD27O,2.200000X2.200000*%
%ADD28R,3.000000X2.000000*%
%ADD29R,1.520000X1.520000*%
%ADD30C,1.520000*%
%ADD31C,2.200000*%
%ADD32C,2.600000*%
G04 APERTURE END LIST*
D10*
%TO.C,C5*%
X91400000Y-115617621D03*
D11*
X91400000Y-118117621D03*
%TD*%
%TO.C,R8*%
X166700000Y-57240000D03*
D12*
X166700000Y-67400000D03*
%TD*%
D13*
%TO.C,J2*%
X63560000Y-106100000D03*
D14*
X66100000Y-106100000D03*
X63560000Y-108640000D03*
X66100000Y-108640000D03*
%TD*%
D15*
%TO.C,J14*%
X133820000Y-48870000D03*
D16*
X133820000Y-46330000D03*
%TD*%
D15*
%TO.C,J12*%
X25610000Y-69000000D03*
D16*
X25610000Y-66460000D03*
%TD*%
D11*
%TO.C,R1*%
X72240000Y-53100000D03*
D12*
X82400000Y-53100000D03*
%TD*%
D13*
%TO.C,J5*%
X139000000Y-76760000D03*
D14*
X141540000Y-76760000D03*
X139000000Y-79300000D03*
X141540000Y-79300000D03*
X139000000Y-81840000D03*
X141540000Y-81840000D03*
%TD*%
D17*
%TO.C,Q3*%
X164500000Y-78220000D03*
D18*
X166570000Y-79490000D03*
X164500000Y-80760000D03*
%TD*%
D19*
%TO.C,REF\u002A\u002A*%
X199700000Y-44100000D03*
%TD*%
D10*
%TO.C,D2*%
X75400000Y-119110000D03*
D12*
X75400000Y-111490000D03*
%TD*%
D11*
%TO.C,R6*%
X125500000Y-41820000D03*
D12*
X125500000Y-51980000D03*
%TD*%
D11*
%TO.C,R7*%
X125500000Y-108920000D03*
D12*
X125500000Y-119080000D03*
%TD*%
D11*
%TO.C,C3*%
X58100000Y-101300000D03*
X58100000Y-96300000D03*
%TD*%
D20*
%TO.C,J16*%
X196990000Y-65090000D03*
D16*
X196990000Y-67630000D03*
%TD*%
D11*
%TO.C,R9*%
X164400000Y-95680000D03*
D12*
X164400000Y-105840000D03*
%TD*%
D11*
%TO.C,R2*%
X86400000Y-48160000D03*
D12*
X86400000Y-38000000D03*
%TD*%
D21*
%TO.C,C2*%
X64850000Y-43100000D03*
X70150000Y-43100000D03*
%TD*%
D22*
%TO.C,L1*%
X46000000Y-106200000D03*
D23*
X46000000Y-102800000D03*
X46000000Y-80850000D03*
X45950000Y-60600000D03*
X45950000Y-57350000D03*
%TD*%
D11*
%TO.C,C9*%
X97700000Y-87700000D03*
X97700000Y-92700000D03*
%TD*%
D24*
%TO.C,J13*%
X63760000Y-115700000D03*
D25*
X66300000Y-115700000D03*
%TD*%
D20*
%TO.C,J17*%
X196990000Y-100060000D03*
D16*
X196990000Y-102600000D03*
%TD*%
D20*
%TO.C,J18*%
X196990000Y-87060000D03*
D16*
X196990000Y-89600000D03*
%TD*%
D17*
%TO.C,Q1*%
X86130000Y-90030000D03*
D18*
X88200000Y-91300000D03*
X86130000Y-92570000D03*
%TD*%
D11*
%TO.C,C6*%
X111000000Y-111600000D03*
X111000000Y-116600000D03*
%TD*%
D19*
%TO.C,REF\u002A\u002A*%
X52100000Y-116300000D03*
%TD*%
D11*
%TO.C,R4*%
X118000000Y-41940000D03*
D12*
X118000000Y-52100000D03*
%TD*%
D11*
%TO.C,R3*%
X104400000Y-38020000D03*
D12*
X94240000Y-38020000D03*
%TD*%
D26*
%TO.C,D3*%
X58000000Y-118880000D03*
D27*
X58000000Y-108720000D03*
%TD*%
D13*
%TO.C,J1*%
X49760000Y-103700000D03*
D14*
X52300000Y-103700000D03*
X49760000Y-106240000D03*
X52300000Y-106240000D03*
X49760000Y-108780000D03*
X52300000Y-108780000D03*
%TD*%
D11*
%TO.C,R5*%
X118000000Y-109040000D03*
D12*
X118000000Y-119200000D03*
%TD*%
D10*
%TO.C,D1*%
X75500000Y-103620000D03*
D12*
X75500000Y-96000000D03*
%TD*%
D28*
%TO.C,T1*%
X181565000Y-54620000D03*
X181565000Y-75170000D03*
D29*
X175655000Y-61900000D03*
D30*
X175655000Y-67900000D03*
X187455000Y-67900000D03*
X187455000Y-64900000D03*
X187455000Y-61900000D03*
%TD*%
D13*
%TO.C,J3*%
X100960000Y-124000000D03*
D14*
X103500000Y-124000000D03*
%TD*%
D10*
%TO.C,C4*%
X96217621Y-53000000D03*
D11*
X98717621Y-53000000D03*
%TD*%
D19*
%TO.C,REF\u002A\u002A*%
X30500000Y-41200000D03*
%TD*%
D17*
%TO.C,Q2*%
X125100000Y-88480000D03*
D18*
X127170000Y-89750000D03*
X125100000Y-91020000D03*
%TD*%
D19*
%TO.C,REF\u002A\u002A*%
X179600000Y-116300000D03*
%TD*%
D15*
%TO.C,J15*%
X156400000Y-95840000D03*
D16*
X156400000Y-93300000D03*
X156400000Y-90760000D03*
%TD*%
D13*
%TO.C,J4*%
X105000000Y-76720000D03*
D14*
X107540000Y-76720000D03*
X105000000Y-79260000D03*
X107540000Y-79260000D03*
X105000000Y-81800000D03*
X107540000Y-81800000D03*
%TD*%
D31*
%TO.C,L3*%
X86550000Y-58600000D03*
D32*
X86600000Y-68800000D03*
X86600000Y-73800000D03*
D27*
X86550000Y-84000000D03*
%TD*%
D10*
%TO.C,C7*%
X131900000Y-112500000D03*
D11*
X131900000Y-115000000D03*
%TD*%
D10*
%TO.C,C8*%
X148000000Y-79300000D03*
D11*
X150500000Y-79300000D03*
%TD*%
D15*
%TO.C,J11*%
X25610000Y-60600000D03*
D16*
X25610000Y-58060000D03*
%TD*%
M02*
