%TF.GenerationSoftware,KiCad,Pcbnew,9.0.0*%
%TF.CreationDate,2026-01-23T12:34:58+00:00*%
%TF.ProjectId,LadybirdRadioUpdated,4c616479-6269-4726-9452-6164696f5570,rev?*%
%TF.SameCoordinates,Original*%
%TF.FileFunction,Copper,L2,Bot*%
%TF.FilePolarity,Positive*%
%FSLAX46Y46*%
G04 Gerber Fmt 4.6, Leading zero omitted, Abs format (unit mm)*
G04 Created by KiCad (PCBNEW 9.0.0) date 2026-01-23 12:34:58*
%MOMM*%
%LPD*%
G01*
G04 APERTURE LIST*
G04 Aperture macros list*
%AMRoundRect*
0 Rectangle with rounded corners*
0 $1 Rounding radius*
0 $2 $3 $4 $5 $6 $7 $8 $9 X,Y pos of 4 corners*
0 Add a 4 corners polygon primitive as box body*
4,1,4,$2,$3,$4,$5,$6,$7,$8,$9,$2,$3,0*
0 Add four circle primitives for the rounded corners*
1,1,$1+$1,$2,$3*
1,1,$1+$1,$4,$5*
1,1,$1+$1,$6,$7*
1,1,$1+$1,$8,$9*
0 Add four rect primitives between the rounded corners*
20,1,$1+$1,$2,$3,$4,$5,0*
20,1,$1+$1,$4,$5,$6,$7,0*
20,1,$1+$1,$6,$7,$8,$9,0*
20,1,$1+$1,$8,$9,$2,$3,0*%
G04 Aperture macros list end*
%TA.AperFunction,ComponentPad*%
%ADD10R,1.600000X1.600000*%
%TD*%
%TA.AperFunction,ComponentPad*%
%ADD11C,1.600000*%
%TD*%
%TA.AperFunction,ComponentPad*%
%ADD12O,1.600000X1.600000*%
%TD*%
%TA.AperFunction,ComponentPad*%
%ADD13R,1.700000X1.700000*%
%TD*%
%TA.AperFunction,ComponentPad*%
%ADD14O,1.700000X1.700000*%
%TD*%
%TA.AperFunction,ComponentPad*%
%ADD15RoundRect,0.250000X0.845000X-0.620000X0.845000X0.620000X-0.845000X0.620000X-0.845000X-0.620000X0*%
%TD*%
%TA.AperFunction,ComponentPad*%
%ADD16O,2.190000X1.740000*%
%TD*%
%TA.AperFunction,ComponentPad*%
%ADD17R,1.800000X1.100000*%
%TD*%
%TA.AperFunction,ComponentPad*%
%ADD18RoundRect,0.275000X-0.625000X0.275000X-0.625000X-0.275000X0.625000X-0.275000X0.625000X0.275000X0*%
%TD*%
%TA.AperFunction,ComponentPad*%
%ADD19RoundRect,0.250000X-0.845000X0.620000X-0.845000X-0.620000X0.845000X-0.620000X0.845000X0.620000X0*%
%TD*%
%TA.AperFunction,ComponentPad*%
%ADD20C,2.300000*%
%TD*%
%TA.AperFunction,WasherPad*%
%ADD21C,2.400000*%
%TD*%
%TA.AperFunction,ComponentPad*%
%ADD22C,2.400000*%
%TD*%
%TA.AperFunction,ComponentPad*%
%ADD23O,2.400000X2.400000*%
%TD*%
%TA.AperFunction,ComponentPad*%
%ADD24RoundRect,0.250000X-0.620000X-0.845000X0.620000X-0.845000X0.620000X0.845000X-0.620000X0.845000X0*%
%TD*%
%TA.AperFunction,ComponentPad*%
%ADD25O,1.740000X2.190000*%
%TD*%
%TA.AperFunction,ComponentPad*%
%ADD26R,2.200000X2.200000*%
%TD*%
%TA.AperFunction,ComponentPad*%
%ADD27O,2.200000X2.200000*%
%TD*%
%TA.AperFunction,WasherPad*%
%ADD28R,3.000000X2.000000*%
%TD*%
%TA.AperFunction,ComponentPad*%
%ADD29R,1.520000X1.520000*%
%TD*%
%TA.AperFunction,ComponentPad*%
%ADD30C,1.520000*%
%TD*%
%TA.AperFunction,ComponentPad*%
%ADD31C,2.200000*%
%TD*%
%TA.AperFunction,ComponentPad*%
%ADD32C,2.600000*%
%TD*%
%TA.AperFunction,ViaPad*%
%ADD33C,0.600000*%
%TD*%
%TA.AperFunction,Conductor*%
%ADD34C,1.000000*%
%TD*%
%TA.AperFunction,Conductor*%
%ADD35C,2.000000*%
%TD*%
G04 APERTURE END LIST*
D10*
%TO.P,C5,1*%
%TO.N,Net-(C5-Pad1)*%
X91400000Y-115617621D03*
D11*
%TO.P,C5,2*%
%TO.N,Net-(D2-K)*%
X91400000Y-118117621D03*
%TD*%
%TO.P,R8,1*%
%TO.N,Net-(J5-Pin_2)*%
X166700000Y-57240000D03*
D12*
%TO.P,R8,2*%
%TO.N,Net-(J15-Pin_3)*%
X166700000Y-67400000D03*
%TD*%
D13*
%TO.P,J2,1,Pin_1*%
%TO.N,Net-(D3-K)*%
X63560000Y-106100000D03*
D14*
%TO.P,J2,2,Pin_2*%
%TO.N,Net-(J2-Pin_2)*%
X66100000Y-106100000D03*
%TO.P,J2,3,Pin_3*%
%TO.N,Net-(D3-K)*%
X63560000Y-108640000D03*
%TO.P,J2,4,Pin_4*%
%TO.N,Net-(J13-Pin_2)*%
X66100000Y-108640000D03*
%TD*%
D15*
%TO.P,J14,1,Pin_1*%
%TO.N,Net-(J14-Pin_1)*%
X133820000Y-48870000D03*
D16*
%TO.P,J14,2,Pin_2*%
%TO.N,/+ve*%
X133820000Y-46330000D03*
%TD*%
D15*
%TO.P,J12,1,Pin_1*%
%TO.N,GND*%
X25610000Y-69000000D03*
D16*
%TO.P,J12,2,Pin_2*%
%TO.N,Net-(J1-Pin_5)*%
X25610000Y-66460000D03*
%TD*%
D11*
%TO.P,R1,1*%
%TO.N,Net-(D1-A)*%
X72240000Y-53100000D03*
D12*
%TO.P,R1,2*%
%TO.N,Net-(C4-Pad1)*%
X82400000Y-53100000D03*
%TD*%
D13*
%TO.P,J5,1,Pin_1*%
%TO.N,/+ve*%
X139000000Y-76760000D03*
D14*
%TO.P,J5,2,Pin_2*%
%TO.N,Net-(J5-Pin_2)*%
X141540000Y-76760000D03*
%TO.P,J5,3,Pin_3*%
%TO.N,Net-(J14-Pin_1)*%
X139000000Y-79300000D03*
%TO.P,J5,4,Pin_4*%
%TO.N,Net-(J5-Pin_4)*%
X141540000Y-79300000D03*
%TO.P,J5,5,Pin_5*%
%TO.N,/GND2*%
X139000000Y-81840000D03*
%TO.P,J5,6,Pin_6*%
%TO.N,Net-(J15-Pin_1)*%
X141540000Y-81840000D03*
%TD*%
D17*
%TO.P,Q3,1,C*%
%TO.N,Net-(Q3-C)*%
X164500000Y-78220000D03*
D18*
%TO.P,Q3,2,B*%
%TO.N,Net-(J15-Pin_3)*%
X166570000Y-79490000D03*
%TO.P,Q3,3,E*%
%TO.N,Net-(Q3-E)*%
X164500000Y-80760000D03*
%TD*%
D10*
%TO.P,D2,1,K*%
%TO.N,Net-(D2-K)*%
X75400000Y-119110000D03*
D12*
%TO.P,D2,2,A*%
%TO.N,Net-(D1-K)*%
X75400000Y-111490000D03*
%TD*%
D11*
%TO.P,R6,1*%
%TO.N,/+ve*%
X125500000Y-41820000D03*
D12*
%TO.P,R6,2*%
%TO.N,Net-(J14-Pin_1)*%
X125500000Y-51980000D03*
%TD*%
D11*
%TO.P,R7,1*%
%TO.N,Net-(Q2-E)*%
X125500000Y-108920000D03*
D12*
%TO.P,R7,2*%
%TO.N,/GND2*%
X125500000Y-119080000D03*
%TD*%
D11*
%TO.P,C3,1*%
%TO.N,Net-(J1-Pin_4)*%
X58100000Y-101300000D03*
%TO.P,C3,2*%
%TO.N,Net-(D1-A)*%
X58100000Y-96300000D03*
%TD*%
D19*
%TO.P,J16,1,Pin_1*%
%TO.N,Net-(J16-Pin_1)*%
X196990000Y-65090000D03*
D16*
%TO.P,J16,2,Pin_2*%
%TO.N,Net-(J16-Pin_2)*%
X196990000Y-67630000D03*
%TD*%
D11*
%TO.P,R9,1*%
%TO.N,Net-(Q3-E)*%
X164400000Y-95680000D03*
D12*
%TO.P,R9,2*%
%TO.N,Net-(J15-Pin_1)*%
X164400000Y-105840000D03*
%TD*%
D11*
%TO.P,R2,1*%
%TO.N,Net-(C4-Pad1)*%
X86400000Y-48160000D03*
D12*
%TO.P,R2,2*%
%TO.N,Net-(C5-Pad1)*%
X86400000Y-38000000D03*
%TD*%
D20*
%TO.P,C2,1*%
%TO.N,Net-(C2-Pad1)*%
X64850000Y-43100000D03*
%TO.P,C2,2*%
%TO.N,Net-(Q1-C)*%
X70150000Y-43100000D03*
%TD*%
D21*
%TO.P,L1,*%
%TO.N,*%
X28800000Y-120000000D03*
X42800000Y-120000000D03*
X28800000Y-52000000D03*
X42800000Y-52000000D03*
D22*
%TO.P,L1,1,1*%
%TO.N,Net-(J1-Pin_3)*%
X46000000Y-106200000D03*
D23*
%TO.P,L1,2,2*%
%TO.N,GND*%
X46000000Y-102800000D03*
%TO.P,L1,3,3*%
%TO.N,Net-(J1-Pin_5)*%
X46000000Y-80850000D03*
%TO.P,L1,4,4*%
%TO.N,Net-(J1-Pin_2)*%
X45950000Y-60600000D03*
%TO.P,L1,5,5*%
%TO.N,Net-(C2-Pad1)*%
X45950000Y-57350000D03*
%TD*%
D11*
%TO.P,C9,1*%
%TO.N,Net-(Q1-C)*%
X97700000Y-87700000D03*
%TO.P,C9,2*%
%TO.N,Net-(D1-K)*%
X97700000Y-92700000D03*
%TD*%
D24*
%TO.P,J13,1,Pin_1*%
%TO.N,GND*%
X63760000Y-115700000D03*
D25*
%TO.P,J13,2,Pin_2*%
%TO.N,Net-(J13-Pin_2)*%
X66300000Y-115700000D03*
%TD*%
D19*
%TO.P,J17,1,Pin_1*%
%TO.N,Net-(J17-Pin_1)*%
X196990000Y-100060000D03*
D16*
%TO.P,J17,2,Pin_2*%
%TO.N,/GND2*%
X196990000Y-102600000D03*
%TD*%
D19*
%TO.P,J18,1,Pin_1*%
%TO.N,/+ve*%
X196990000Y-87060000D03*
D16*
%TO.P,J18,2,Pin_2*%
%TO.N,Net-(J17-Pin_1)*%
X196990000Y-89600000D03*
%TD*%
D17*
%TO.P,Q1,1,C*%
%TO.N,Net-(Q1-C)*%
X86130000Y-90030000D03*
D18*
%TO.P,Q1,2,B*%
%TO.N,Net-(D1-A)*%
X88200000Y-91300000D03*
%TO.P,Q1,3,E*%
%TO.N,Net-(D2-K)*%
X86130000Y-92570000D03*
%TD*%
D11*
%TO.P,C6,1*%
%TO.N,Net-(J2-Pin_2)*%
X111000000Y-111600000D03*
%TO.P,C6,2*%
%TO.N,/GND2*%
X111000000Y-116600000D03*
%TD*%
%TO.P,R4,1*%
%TO.N,/+ve*%
X118000000Y-41940000D03*
D12*
%TO.P,R4,2*%
%TO.N,Net-(J2-Pin_2)*%
X118000000Y-52100000D03*
%TD*%
D11*
%TO.P,R3,1*%
%TO.N,Net-(J4-Pin_1)*%
X104400000Y-38020000D03*
D12*
%TO.P,R3,2*%
%TO.N,Net-(C5-Pad1)*%
X94240000Y-38020000D03*
%TD*%
D26*
%TO.P,D3,1,K*%
%TO.N,Net-(D3-K)*%
X58000000Y-118880000D03*
D27*
%TO.P,D3,2,A*%
%TO.N,Net-(D3-A)*%
X58000000Y-108720000D03*
%TD*%
D13*
%TO.P,J1,1,Pin_1*%
%TO.N,GND*%
X49760000Y-103700000D03*
D14*
%TO.P,J1,2,Pin_2*%
%TO.N,Net-(J1-Pin_2)*%
X52300000Y-103700000D03*
%TO.P,J1,3,Pin_3*%
%TO.N,Net-(J1-Pin_3)*%
X49760000Y-106240000D03*
%TO.P,J1,4,Pin_4*%
%TO.N,Net-(J1-Pin_4)*%
X52300000Y-106240000D03*
%TO.P,J1,5,Pin_5*%
%TO.N,Net-(J1-Pin_5)*%
X49760000Y-108780000D03*
%TO.P,J1,6,Pin_6*%
%TO.N,Net-(D3-A)*%
X52300000Y-108780000D03*
%TD*%
D11*
%TO.P,R5,1*%
%TO.N,Net-(J2-Pin_2)*%
X118000000Y-109040000D03*
D12*
%TO.P,R5,2*%
%TO.N,/GND2*%
X118000000Y-119200000D03*
%TD*%
D10*
%TO.P,D1,1,K*%
%TO.N,Net-(D1-K)*%
X75500000Y-103620000D03*
D12*
%TO.P,D1,2,A*%
%TO.N,Net-(D1-A)*%
X75500000Y-96000000D03*
%TD*%
D28*
%TO.P,T1,*%
%TO.N,*%
X181565000Y-54620000D03*
X181565000Y-75170000D03*
D29*
%TO.P,T1,1,AA*%
%TO.N,Net-(J5-Pin_2)*%
X175655000Y-61900000D03*
D30*
%TO.P,T1,2,AB*%
%TO.N,Net-(Q3-C)*%
X175655000Y-67900000D03*
%TO.P,T1,3,SA*%
%TO.N,Net-(J16-Pin_2)*%
X187455000Y-67900000D03*
%TO.P,T1,4,SC*%
%TO.N,Net-(J16-Pin_1)*%
X187455000Y-64900000D03*
%TO.P,T1,5,SB*%
%TO.N,Net-(JP1-A)*%
X187455000Y-61900000D03*
%TD*%
D13*
%TO.P,J3,1,Pin_1*%
%TO.N,GND*%
X100960000Y-124000000D03*
D14*
%TO.P,J3,2,Pin_2*%
%TO.N,/GND2*%
X103500000Y-124000000D03*
%TD*%
D10*
%TO.P,C4,1*%
%TO.N,Net-(C4-Pad1)*%
X96217621Y-53000000D03*
D11*
%TO.P,C4,2*%
%TO.N,Net-(J4-Pin_3)*%
X98717621Y-53000000D03*
%TD*%
D17*
%TO.P,Q2,1,C*%
%TO.N,Net-(J14-Pin_1)*%
X125100000Y-88480000D03*
D18*
%TO.P,Q2,2,B*%
%TO.N,Net-(J2-Pin_2)*%
X127170000Y-89750000D03*
%TO.P,Q2,3,E*%
%TO.N,Net-(Q2-E)*%
X125100000Y-91020000D03*
%TD*%
D15*
%TO.P,J15,1,Pin_1*%
%TO.N,Net-(J15-Pin_1)*%
X156400000Y-95840000D03*
D16*
%TO.P,J15,2,Pin_2*%
%TO.N,Net-(J15-Pin_2)*%
X156400000Y-93300000D03*
%TO.P,J15,3,Pin_3*%
%TO.N,Net-(J15-Pin_3)*%
X156400000Y-90760000D03*
%TD*%
D13*
%TO.P,J4,1,Pin_1*%
%TO.N,Net-(J4-Pin_1)*%
X105000000Y-76720000D03*
D14*
%TO.P,J4,2,Pin_2*%
%TO.N,/+ve*%
X107540000Y-76720000D03*
%TO.P,J4,3,Pin_3*%
%TO.N,Net-(J4-Pin_3)*%
X105000000Y-79260000D03*
%TO.P,J4,4,Pin_4*%
%TO.N,Net-(J2-Pin_2)*%
X107540000Y-79260000D03*
%TO.P,J4,5,Pin_5*%
%TO.N,Net-(D2-K)*%
X105000000Y-81800000D03*
%TO.P,J4,6,Pin_6*%
%TO.N,/GND2*%
X107540000Y-81800000D03*
%TD*%
D31*
%TO.P,L3,1,1*%
%TO.N,Net-(C4-Pad1)*%
X86550000Y-58600000D03*
D32*
X86600000Y-68800000D03*
%TO.P,L3,2,2*%
%TO.N,Net-(Q1-C)*%
X86600000Y-73800000D03*
D27*
X86550000Y-84000000D03*
%TD*%
D10*
%TO.P,C7,1*%
%TO.N,Net-(Q2-E)*%
X131900000Y-112500000D03*
D11*
%TO.P,C7,2*%
%TO.N,/GND2*%
X131900000Y-115000000D03*
%TD*%
D10*
%TO.P,C8,1*%
%TO.N,Net-(J5-Pin_4)*%
X148000000Y-79300000D03*
D11*
%TO.P,C8,2*%
%TO.N,Net-(J15-Pin_2)*%
X150500000Y-79300000D03*
%TD*%
D15*
%TO.P,J11,1,Pin_1*%
%TO.N,GND*%
X25610000Y-60600000D03*
D16*
%TO.P,J11,2,Pin_2*%
%TO.N,Net-(J1-Pin_5)*%
X25610000Y-58060000D03*
%TD*%
D33*
%TO.N,Net-(D2-K)*%
X86000000Y-119000000D03*
%TD*%
D34*
%TO.N,Net-(Q1-C)*%
X86400000Y-89620736D02*
X86160368Y-89860368D01*
X93900000Y-84100000D02*
X97400000Y-87600000D01*
X80400000Y-84100000D02*
X77400000Y-81100000D01*
X86400000Y-84100000D02*
X93900000Y-84100000D01*
X86400000Y-84100000D02*
X80400000Y-84100000D01*
X77400000Y-81100000D02*
X77400000Y-49800000D01*
X86400000Y-73950000D02*
X86450000Y-73900000D01*
X77400000Y-49800000D02*
X70700000Y-43100000D01*
X86400000Y-84100000D02*
X86400000Y-73950000D01*
X86400000Y-84100000D02*
X86400000Y-89620736D01*
%TO.N,Net-(C2-Pad1)*%
X45950000Y-46050000D02*
X48900000Y-43100000D01*
X45950000Y-57350000D02*
X45950000Y-46050000D01*
X48900000Y-43100000D02*
X64850000Y-43100000D01*
%TO.N,Net-(D1-A)*%
X75400000Y-96290000D02*
X85769264Y-96290000D01*
X75200000Y-96300000D02*
X75500000Y-96000000D01*
X72200000Y-96300000D02*
X75200000Y-96300000D01*
X72240000Y-53100000D02*
X72240000Y-96260000D01*
X72240000Y-96260000D02*
X72200000Y-96300000D01*
X58010000Y-96090000D02*
X58000000Y-96100000D01*
X88401000Y-93658264D02*
X88401000Y-91370000D01*
X58100000Y-96300000D02*
X72200000Y-96300000D01*
X85769264Y-96290000D02*
X88401000Y-93658264D01*
%TO.N,Net-(J1-Pin_4)*%
X53602081Y-106200000D02*
X58000000Y-101802081D01*
X52400000Y-106200000D02*
X53602081Y-106200000D01*
X58000000Y-101802081D02*
X58000000Y-101100000D01*
%TO.N,Net-(C4-Pad1)*%
X86400000Y-48180000D02*
X86400000Y-53100000D01*
X96217621Y-53000000D02*
X86500000Y-53000000D01*
X82400000Y-53100000D02*
X86400000Y-53100000D01*
X86400000Y-58700000D02*
X86400000Y-68850000D01*
X86400000Y-68850000D02*
X86450000Y-68900000D01*
X86400000Y-53100000D02*
X86500000Y-53000000D01*
X86400000Y-53100000D02*
X86400000Y-58700000D01*
%TO.N,Net-(C5-Pad1)*%
X86400000Y-38020000D02*
X94240000Y-38020000D01*
%TO.N,Net-(Q2-E)*%
X125500000Y-108920000D02*
X128320000Y-108920000D01*
X125500000Y-91499264D02*
X125260368Y-91259632D01*
X128320000Y-108920000D02*
X131900000Y-112500000D01*
%TO.N,Net-(J15-Pin_2)*%
X150500000Y-89495000D02*
X154305000Y-93300000D01*
X150500000Y-79300000D02*
X150500000Y-89495000D01*
X154305000Y-93300000D02*
X156400000Y-93300000D01*
%TO.N,Net-(D1-K)*%
X97450000Y-107100000D02*
X96450000Y-108100000D01*
X75400000Y-103910000D02*
X75400000Y-108100000D01*
X97450000Y-92600000D02*
X97450000Y-107100000D01*
X96400000Y-108100000D02*
X75400000Y-108100000D01*
X75400000Y-108100000D02*
X75400000Y-111580000D01*
%TO.N,Net-(J1-Pin_2)*%
X45950000Y-60600000D02*
X52400000Y-67050000D01*
X52400000Y-67050000D02*
X52400000Y-103660000D01*
%TO.N,Net-(J2-Pin_2)*%
X127501000Y-92328106D02*
X127501000Y-90001736D01*
X118000000Y-79500000D02*
X118000000Y-96100000D01*
X118000000Y-52100000D02*
X118000000Y-79500000D01*
X118000000Y-96100000D02*
X123729106Y-96100000D01*
X118000000Y-109040000D02*
X113560000Y-109040000D01*
X123729106Y-96100000D02*
X127501000Y-92328106D01*
X107540000Y-79260000D02*
X117760000Y-79260000D01*
X113560000Y-109040000D02*
X111000000Y-111600000D01*
X117760000Y-79260000D02*
X118000000Y-79500000D01*
X118000000Y-96100000D02*
X118000000Y-109040000D01*
%TO.N,Net-(J5-Pin_4)*%
X148000000Y-79300000D02*
X141500000Y-79300000D01*
%TO.N,Net-(Q3-C)*%
X174740736Y-67900000D02*
X164660368Y-77980368D01*
X164600000Y-77920000D02*
X164550000Y-77870000D01*
X175655000Y-67900000D02*
X174740736Y-67900000D01*
%TO.N,Net-(Q3-E)*%
X164400000Y-95680000D02*
X164400000Y-81260000D01*
X164400000Y-81260000D02*
X164660368Y-80999632D01*
%TO.N,Net-(J1-Pin_3)*%
X46000000Y-106200000D02*
X49300000Y-106200000D01*
%TO.N,Net-(J4-Pin_3)*%
X102838000Y-79260000D02*
X98717621Y-75139621D01*
X105000000Y-79260000D02*
X102838000Y-79260000D01*
X98717621Y-75139621D02*
X98717621Y-53000000D01*
D35*
%TO.N,GND*%
X79400000Y-124100000D02*
X86400000Y-124100000D01*
D34*
X46000000Y-102800000D02*
X36200000Y-102800000D01*
D35*
X86400000Y-124100000D02*
X100649000Y-124100000D01*
X63600000Y-124000000D02*
X63700000Y-124100000D01*
D34*
X63630000Y-115720000D02*
X63630000Y-123970000D01*
X25400000Y-60600000D02*
X22000000Y-64000000D01*
D35*
X63700000Y-124100000D02*
X75200000Y-124100000D01*
D34*
X35000000Y-111200000D02*
X35000000Y-124000000D01*
X63630000Y-123970000D02*
X63600000Y-124000000D01*
X36200000Y-102800000D02*
X35000000Y-104000000D01*
X46000000Y-102800000D02*
X49000000Y-102800000D01*
X75300000Y-124000000D02*
X75400000Y-124100000D01*
D35*
X75400000Y-124100000D02*
X79400000Y-124100000D01*
X63500000Y-124100000D02*
X63600000Y-124000000D01*
D34*
X35000000Y-104000000D02*
X35000000Y-111200000D01*
D35*
X35000000Y-124000000D02*
X35100000Y-124100000D01*
X34900000Y-124100000D02*
X35000000Y-124000000D01*
D34*
X25610000Y-69000000D02*
X25610000Y-94610000D01*
X49000000Y-102800000D02*
X49860000Y-103660000D01*
D35*
X22600000Y-124100000D02*
X34900000Y-124100000D01*
D34*
X22000000Y-64000000D02*
X22000000Y-124000000D01*
D35*
X35100000Y-124100000D02*
X63500000Y-124100000D01*
X22500000Y-124000000D02*
X22600000Y-124100000D01*
D34*
X25610000Y-94610000D02*
X35000000Y-104000000D01*
%TO.N,Net-(D2-K)*%
X100690000Y-119110000D02*
X91500000Y-119110000D01*
X91400000Y-119010000D02*
X91500000Y-119110000D01*
X105000000Y-114800000D02*
X100690000Y-119110000D01*
X105000000Y-81800000D02*
X105000000Y-114800000D01*
X75400000Y-119110000D02*
X91500000Y-119110000D01*
X91400000Y-118117621D02*
X91400000Y-119010000D01*
%TO.N,Net-(D3-A)*%
X57980000Y-108740000D02*
X58000000Y-108720000D01*
X52400000Y-108740000D02*
X57980000Y-108740000D01*
%TO.N,Net-(D3-K)*%
X58000000Y-114200000D02*
X63560000Y-108640000D01*
X63560000Y-108640000D02*
X63560000Y-106100000D01*
X58000000Y-118880000D02*
X58000000Y-114200000D01*
%TO.N,Net-(J1-Pin_5)*%
X46000000Y-69000000D02*
X46000000Y-80850000D01*
X25650000Y-58100000D02*
X31700000Y-58100000D01*
X25610000Y-58060000D02*
X25650000Y-58100000D01*
X43460000Y-66460000D02*
X46000000Y-69000000D01*
X25610000Y-66460000D02*
X43460000Y-66460000D01*
X31700000Y-58100000D02*
X33300000Y-59700000D01*
X31940000Y-66460000D02*
X25610000Y-66460000D01*
X33300000Y-59700000D02*
X33300000Y-65100000D01*
X33300000Y-65100000D02*
X31940000Y-66460000D01*
%TO.N,Net-(J4-Pin_1)*%
X105000000Y-76720000D02*
X105000000Y-38620000D01*
X105000000Y-38620000D02*
X104400000Y-38020000D01*
%TO.N,Net-(J15-Pin_1)*%
X156400000Y-119360000D02*
X156300000Y-119460000D01*
X141540000Y-113340000D02*
X141600000Y-113400000D01*
X156400000Y-95840000D02*
X156400000Y-119360000D01*
X163900000Y-117060000D02*
X163900000Y-106340000D01*
X161500000Y-119460000D02*
X163900000Y-117060000D01*
X141600000Y-116400000D02*
X144700000Y-119500000D01*
X144700000Y-119500000D02*
X160300000Y-119500000D01*
X141600000Y-113400000D02*
X141600000Y-116400000D01*
X156300000Y-119460000D02*
X161500000Y-119460000D01*
X141540000Y-81840000D02*
X141540000Y-113340000D01*
X163900000Y-106340000D02*
X164400000Y-105840000D01*
%TO.N,Net-(J5-Pin_2)*%
X166700000Y-57240000D02*
X166700000Y-48450000D01*
D35*
X145200000Y-48450000D02*
X166700000Y-48450000D01*
D34*
X141540000Y-51460000D02*
X141540000Y-76760000D01*
X144550000Y-48450000D02*
X141540000Y-51460000D01*
D35*
X166700000Y-48450000D02*
X175200000Y-48450000D01*
D34*
X175655000Y-61900000D02*
X175655000Y-48500000D01*
%TO.N,Net-(J16-Pin_2)*%
X187490000Y-67900000D02*
X196720000Y-67900000D01*
X196720000Y-67900000D02*
X196990000Y-67630000D01*
%TO.N,Net-(J16-Pin_1)*%
X196800000Y-64900000D02*
X196990000Y-65090000D01*
X187490000Y-64900000D02*
X196800000Y-64900000D01*
%TO.N,Net-(J13-Pin_2)*%
X66100000Y-115650000D02*
X66170000Y-115720000D01*
X66100000Y-108640000D02*
X66100000Y-115650000D01*
%TO.N,Net-(J14-Pin_1)*%
X125500000Y-88000736D02*
X125260368Y-88240368D01*
X125500000Y-70480000D02*
X125500000Y-79200000D01*
X125500000Y-51980000D02*
X125500000Y-70480000D01*
X125500000Y-79200000D02*
X125500000Y-88000736D01*
X139000000Y-79300000D02*
X125600000Y-79300000D01*
X125500000Y-51980000D02*
X130710000Y-51980000D01*
X130710000Y-51980000D02*
X133820000Y-48870000D01*
X125600000Y-79300000D02*
X125500000Y-79200000D01*
%TO.N,Net-(J17-Pin_1)*%
X196990000Y-89600000D02*
X196990000Y-100060000D01*
D35*
%TO.N,/GND2*%
X139300000Y-124100000D02*
X192600000Y-124100000D01*
X118500000Y-124100000D02*
X123600000Y-124100000D01*
D34*
X118000000Y-123600000D02*
X118500000Y-124100000D01*
X118000000Y-119200000D02*
X118000000Y-123600000D01*
X125500000Y-119080000D02*
X127820000Y-119080000D01*
D35*
X196990000Y-119690000D02*
X196990000Y-102931000D01*
D34*
X139000000Y-123800000D02*
X139300000Y-124100000D01*
X107540000Y-113140000D02*
X111000000Y-116600000D01*
X127820000Y-119080000D02*
X131900000Y-115000000D01*
X107540000Y-81800000D02*
X107540000Y-113140000D01*
D35*
X197000000Y-119700000D02*
X196990000Y-119690000D01*
X192600000Y-124100000D02*
X197000000Y-119700000D01*
X104000000Y-124100000D02*
X111000000Y-124100000D01*
D34*
X139000000Y-81840000D02*
X139000000Y-123800000D01*
D35*
X123600000Y-124100000D02*
X139300000Y-124100000D01*
D34*
X125500000Y-119080000D02*
X125500000Y-123480000D01*
D35*
X111000000Y-124100000D02*
X118500000Y-124100000D01*
D34*
X111000000Y-116600000D02*
X111000000Y-124100000D01*
D35*
%TO.N,/+ve*%
X206500000Y-41600000D02*
X206500000Y-79500000D01*
X139100000Y-38020000D02*
X182600000Y-38020000D01*
D34*
X118000000Y-41940000D02*
X118000000Y-38520000D01*
X133820000Y-38220000D02*
X133800000Y-38200000D01*
X125500000Y-38400000D02*
X125000000Y-37900000D01*
D35*
X131700000Y-38020000D02*
X139100000Y-38020000D01*
X133180000Y-38020000D02*
X133200000Y-38000000D01*
D34*
X133820000Y-46330000D02*
X133820000Y-38220000D01*
D35*
X206500000Y-79500000D02*
X199271000Y-86729000D01*
X182600000Y-38020000D02*
X202920000Y-38020000D01*
X118500000Y-38020000D02*
X108100000Y-38020000D01*
X202920000Y-38020000D02*
X206500000Y-41600000D01*
D34*
X118000000Y-38520000D02*
X118500000Y-38020000D01*
D35*
X124000000Y-38020000D02*
X131700000Y-38020000D01*
D34*
X125500000Y-41820000D02*
X125500000Y-38400000D01*
D35*
X199271000Y-86729000D02*
X196990000Y-86729000D01*
X118500000Y-38020000D02*
X124000000Y-38020000D01*
D34*
X139000000Y-76760000D02*
X139000000Y-38120000D01*
D35*
X131700000Y-38020000D02*
X133180000Y-38020000D01*
D34*
X139000000Y-38120000D02*
X139100000Y-38020000D01*
X107540000Y-76720000D02*
X107540000Y-38240000D01*
%TD*%
M02*
